<svg width="40" height="40" viewBox="0 0 40 40" fill="none" xmlns="http://www.w3.org/2000/svg">
<path d="M34.425 30.175H34.4187V20.0781V5.65625C34.4187 3.26875 32.4812 1.32812 30.0906 1.32812H5.57495C3.18745 1.32812 1.24683 3.26563 1.24683 5.65625C1.24683 8.04688 3.18433 9.98438 5.57495 9.98438C5.57808 9.98438 5.57808 9.98438 5.5812 9.98438H7.02495H8.46245V20.0813V34.5031C8.46245 36.8906 10.4 38.8312 12.7906 38.8312C12.8218 38.8312 12.8468 38.8219 12.875 38.8219H34.4312V38.8312C36.8218 38.8312 38.7593 36.8938 38.7593 34.5031C38.7531 32.1125 36.8156 30.175 34.425 30.175Z" fill="url(#paint0_linear_39_18)"/>
<path d="M5.57505 2.77188C7.1688 2.77188 8.45942 4.06563 8.45942 5.65626V7.04376C8.42817 5.48126 7.15317 4.21563 5.5813 4.21563C4.23755 4.21563 3.11567 5.14376 2.79692 6.38751C2.73442 6.15313 2.69067 5.91251 2.69067 5.65626C2.69067 4.06563 3.98442 2.77188 5.57505 2.77188Z" fill="#5D4037"/>
<path d="M5.5812 8.06874C6.37856 8.06874 7.02495 7.42236 7.02495 6.62499C7.02495 5.82763 6.37856 5.18124 5.5812 5.18124C4.78384 5.18124 4.13745 5.82763 4.13745 6.62499C4.13745 7.42236 4.78384 8.06874 5.5812 8.06874Z" fill="#6D4C41"/>
<path d="M9.89995 34.5V20.0781V9.98126H9.9062V7.09688H9.89995V5.65626C9.89995 4.54376 9.4687 3.53751 8.77808 2.77188H30.0937C31.6843 2.77188 32.9781 4.06563 32.9781 5.65626V20.0781V30.175H12.7906C12.7906 30.175 12.7906 30.175 12.7875 30.175C12.7875 30.175 12.7875 30.175 12.7843 30.175C11.1968 30.1781 9.9062 31.4688 9.9062 33.0594C9.9062 34.65 11.2 35.9438 12.7906 35.9438C14.1281 35.9438 15.2437 35.025 15.5718 33.7875C15.6281 34.0156 15.6687 34.2531 15.6687 34.5C15.6687 36.0625 14.4218 37.3313 12.8687 37.375H12.7812V37.3844C11.1937 37.3813 9.89995 36.0906 9.89995 34.5Z" fill="url(#paint1_linear_39_18)"/>
<path d="M14.2344 33.0594C14.2344 33.8531 13.5875 34.5031 12.7907 34.5031C11.9969 34.5031 11.3469 33.8563 11.3469 33.0594C11.3469 32.2656 11.9938 31.6188 12.7875 31.6156C12.7907 31.6156 12.7907 31.6156 12.7938 31.6156C13.5907 31.6219 14.2344 32.2656 14.2344 33.0594Z" fill="#5D4037"/>
<path d="M34.4249 37.3844V37.375H15.9967C16.6811 36.6094 17.1124 35.6094 17.1124 34.5C17.1124 33.3875 16.6811 32.3813 15.9905 31.6156H34.4249C36.0155 31.6156 37.3092 32.9094 37.3092 34.5C37.3092 36.0906 36.0155 37.3844 34.4249 37.3844Z" fill="black"/>
<path d="M34.4187 37.3844V37.375H15.9906C16.6781 36.6094 17.1063 35.6094 17.1063 34.5C17.1063 33.3875 16.675 32.3813 15.9844 31.6156H34.4187C36.0094 31.6156 37.3031 32.9094 37.3031 34.5C37.3062 36.0906 36.0125 37.3844 34.4187 37.3844Z" fill="url(#paint2_linear_39_18)"/>
<path d="M29.5311 9.50937H14.353C14.0061 9.50937 13.7249 9.18749 13.7249 8.79062C13.7249 8.39374 14.0061 8.07187 14.353 8.07187H29.5311C29.878 8.07187 30.1592 8.39374 30.1592 8.79062C30.1592 9.18749 29.878 9.50937 29.5311 9.50937Z" fill="#8D6E63"/>
<path d="M29.5311 13.9031H14.353C14.0061 13.9031 13.7249 13.5812 13.7249 13.1844C13.7249 12.7875 14.0061 12.4656 14.353 12.4656H29.5311C29.878 12.4656 30.1592 12.7875 30.1592 13.1844C30.1592 13.5781 29.878 13.9031 29.5311 13.9031Z" fill="#8D6E63"/>
<path d="M29.5311 18.2969H14.353C14.0061 18.2969 13.7249 17.975 13.7249 17.5781C13.7249 17.1812 14.0061 16.8594 14.353 16.8594H29.5311C29.878 16.8594 30.1592 17.1812 30.1592 17.5781C30.1592 17.975 29.878 18.2969 29.5311 18.2969Z" fill="#8D6E63"/>
<path d="M29.5311 22.6906H14.353C14.0061 22.6906 13.7249 22.3687 13.7249 21.9719C13.7249 21.575 14.0061 21.2531 14.353 21.2531H29.5311C29.878 21.2531 30.1592 21.575 30.1592 21.9719C30.1592 22.3687 29.878 22.6906 29.5311 22.6906Z" fill="#8D6E63"/>
<path d="M20.8467 27.0844H14.353C14.0061 27.0844 13.7249 26.7625 13.7249 26.3656C13.7249 25.9687 14.0061 25.6469 14.353 25.6469H20.8436C21.1905 25.6469 21.4717 25.9687 21.4717 26.3656C21.4717 26.7625 21.1905 27.0844 20.8467 27.0844Z" fill="#8D6E63"/>
<g opacity="0.2">
<path d="M30.0937 2.26562C31.9625 2.26562 33.4843 3.7875 33.4843 5.65625V20.0781V30.175C33.4843 30.6937 33.9093 31.1125 34.4281 31.1125C36.2968 31.1125 37.8187 32.6344 37.8187 34.5031C37.8187 36.3344 36.3593 37.8312 34.5437 37.8906C34.5062 37.8875 34.4687 37.8844 34.4312 37.8844H12.8718C12.8187 37.8844 12.7718 37.8875 12.7374 37.8937C10.8906 37.8656 9.39995 36.3563 9.39995 34.5062V20.0781V9.98125C9.39995 9.4625 8.9812 9.04375 8.46245 9.04375H7.02495H5.57808C3.70933 9.04375 2.18745 7.52187 2.18745 5.65312C2.18745 3.78437 3.7062 2.26562 5.57495 2.26562H30.0937ZM30.0937 1.32812H5.57495C3.18745 1.32812 1.24683 3.26563 1.24683 5.65625C1.24683 8.04375 3.18433 9.98438 5.57495 9.98438C5.57808 9.98438 5.57808 9.98438 5.5812 9.98438H7.02495H8.46245V20.0813V34.5031C8.46245 36.8906 10.4 38.8312 12.7906 38.8312C12.8218 38.8312 12.8468 38.8219 12.875 38.8219H34.4312V38.8312C36.8218 38.8312 38.7593 36.8938 38.7593 34.5031C38.7593 32.1125 36.8218 30.175 34.4312 30.175H34.425V20.0781V5.65625C34.4187 3.26563 32.4843 1.32812 30.0937 1.32812Z" fill="#424242"/>
</g>
<defs>
<linearGradient id="paint0_linear_39_18" x1="20" y1="1.55084" x2="20" y2="38.7189" gradientUnits="userSpaceOnUse">
<stop offset="0.0147" stop-color="#A1887F"/>
<stop offset="0.2039" stop-color="#9D8279"/>
<stop offset="1" stop-color="#8D6E63"/>
</linearGradient>
<linearGradient id="paint1_linear_39_18" x1="20.8783" y1="2.97604" x2="20.8783" y2="37.381" gradientUnits="userSpaceOnUse">
<stop offset="0.0147" stop-color="#D7C1AE"/>
<stop offset="0.2517" stop-color="#D1BBA9"/>
<stop offset="0.5799" stop-color="#C0A99A"/>
<stop offset="0.9599" stop-color="#A48C82"/>
<stop offset="1" stop-color="#A1887F"/>
</linearGradient>
<linearGradient id="paint2_linear_39_18" x1="26.6447" y1="31.731" x2="26.6447" y2="37.7677" gradientUnits="userSpaceOnUse">
<stop offset="0.0147" stop-color="#D7C1AE"/>
<stop offset="0.2413" stop-color="#CFB9A7"/>
<stop offset="0.6006" stop-color="#B9A294"/>
<stop offset="0.9169" stop-color="#A1887F"/>
</linearGradient>
</defs>
</svg>
