<svg width="25" height="24" viewBox="0 0 25 24" fill="none" xmlns="http://www.w3.org/2000/svg">
<mask id="mask0_39_474" style="mask-type:alpha" maskUnits="userSpaceOnUse" x="0" y="0" width="25" height="24">
<path d="M24.2969 0H0.296875V24H24.2969V0Z" fill="#D9D9D9"/>
</mask>
<g mask="url(#mask0_39_474)">
<path d="M15.3719 18.95L14.5219 21.375C14.4552 21.5583 14.3385 21.7083 14.1719 21.825C14.0052 21.9417 13.8219 22 13.6219 22C13.2885 22 13.0177 21.8625 12.8094 21.5875C12.601 21.3125 12.5635 21.0083 12.6969 20.675L16.4969 10.625C16.5802 10.4417 16.7052 10.2917 16.8719 10.175C17.0385 10.0583 17.2219 10 17.4219 10H18.1719C18.3719 10 18.5552 10.0583 18.7219 10.175C18.8885 10.2917 19.0135 10.4417 19.0969 10.625L22.8969 20.7C23.0302 21.0167 22.9969 21.3125 22.7969 21.5875C22.5969 21.8625 22.3302 22 21.9969 22C21.7802 22 21.5927 21.9417 21.4344 21.825C21.276 21.7083 21.1552 21.55 21.0719 21.35L20.2219 18.95H15.3719ZM9.34688 13.975L4.99688 18.3C4.81354 18.4833 4.58438 18.5792 4.30938 18.5875C4.03438 18.5958 3.79688 18.5 3.59688 18.3C3.41354 18.1167 3.32188 17.8833 3.32188 17.6C3.32188 17.3167 3.41354 17.0833 3.59688 16.9L7.94688 12.55C7.36354 11.9667 6.83438 11.3 6.35938 10.55C5.88438 9.8 5.44688 8.95 5.04688 8H7.14688C7.48021 8.65 7.81354 9.21667 8.14688 9.7C8.48021 10.1833 8.88021 10.6667 9.34688 11.15C9.89688 10.6 10.4677 9.82917 11.0594 8.8375C11.651 7.84583 12.0969 6.9 12.3969 6H2.29688C2.01354 6 1.77604 5.90417 1.58438 5.7125C1.39271 5.52083 1.29688 5.28333 1.29688 5C1.29688 4.71667 1.39271 4.47917 1.58438 4.2875C1.77604 4.09583 2.01354 4 2.29688 4H8.29688V3C8.29688 2.71667 8.39271 2.47917 8.58437 2.2875C8.77604 2.09583 9.01354 2 9.29688 2C9.58021 2 9.81771 2.09583 10.0094 2.2875C10.201 2.47917 10.2969 2.71667 10.2969 3V4H16.2969C16.5802 4 16.8177 4.09583 17.0094 4.2875C17.201 4.47917 17.2969 4.71667 17.2969 5C17.2969 5.28333 17.201 5.52083 17.0094 5.7125C16.8177 5.90417 16.5802 6 16.2969 6H14.3969C14.0469 7.2 13.5219 8.43333 12.8219 9.7C12.1219 10.9667 11.4302 11.9333 10.7469 12.6L13.1469 15.05L12.3969 17.1L9.34688 13.975ZM15.9969 17.2H19.5969L17.7969 12.1L15.9969 17.2Z" fill="#455A64"/>
</g>
</svg>
